<svg xmlns="http://www.w3.org/2000/svg" viewBox="0 0 118.22 117.87"><defs><style>.cls-1{fill:#e1f5fe;}</style></defs><title>buy_home</title><g id="Слой_2" data-name="Слой 2"><g id="Icon_set" data-name="Icon set"><path class="cls-1" d="M99.56,117.87H18.75a3.89,3.89,0,0,1-3.64-4.09V54.54H1.32a1.32,1.32,0,0,1-.9-2.28L54.74,1.65a6.16,6.16,0,0,1,8.35,0L117.8,52.23a1.32,1.32,0,0,1-.89,2.28l-13.7,0v59.23A3.89,3.89,0,0,1,99.56,117.87Zm-94.91-66H16.42a1.32,1.32,0,0,1,1.32,1.32v60.54c0,.78.47,1.46,1,1.46H99.56c.54,0,1-.68,1-1.46V53.23a1.32,1.32,0,0,1,1.31-1.32l11.67,0L61.31,3.55a3.53,3.53,0,0,0-4.78,0Z"/><path class="cls-1" d="M75.27,86.09a1.32,1.32,0,0,1-.93-2.25l4.2-4.2a.37.37,0,0,0,0-.53,1.32,1.32,0,0,1,1.86-1.86,3,3,0,0,1,0,4.26l-4.2,4.2A1.32,1.32,0,0,1,75.27,86.09Z"/><path class="cls-1" d="M82.83,82a3,3,0,0,1-2.11-.9L64.63,65a2.75,2.75,0,0,1-.2-3.86L70,55.59a2.45,2.45,0,0,1,1.75-.71,3,3,0,0,1,2.11.91L89.91,71.87a2.75,2.75,0,0,1,.2,3.86l-5.53,5.53A2.45,2.45,0,0,1,82.83,82ZM66.36,62.91a.48.48,0,0,0,.13.21L82.58,79.21a.48.48,0,0,0,.21.13l5.39-5.39a.46.46,0,0,0-.13-.21L72,57.65a.47.47,0,0,0-.21-.13Z"/><path class="cls-1" d="M63.69,103.42H63.6a5.4,5.4,0,0,1-3.83-1.7L38.63,79.07a1.32,1.32,0,1,1,1.92-1.79L61.69,99.92a2.73,2.73,0,0,0,3.93.07L75,90.6a2.74,2.74,0,0,0,0-3.84L63.18,74.54a1.32,1.32,0,0,1,1.89-1.83L76.93,84.93a5.39,5.39,0,0,1-.06,7.53l-9.39,9.39A5.4,5.4,0,0,1,63.69,103.42Z"/><path class="cls-1" d="M36.19,81.11a2.45,2.45,0,0,1-1.75-.71l-5.53-5.53a2.74,2.74,0,0,1,.2-3.86L45.19,54.92A3,3,0,0,1,47.3,54a2.46,2.46,0,0,1,1.75.71l5.53,5.53a2.49,2.49,0,0,1,.7,2,3.07,3.07,0,0,1-.89,1.84L38.3,80.2A3,3,0,0,1,36.19,81.11Zm-5.35-8,5.39,5.39a.48.48,0,0,0,.21-.13L52.53,62.25a.45.45,0,0,0,.13-.21l-5.39-5.39a.48.48,0,0,0-.21.13L31,72.87A.48.48,0,0,0,30.84,73.08Z"/><path class="cls-1" d="M60.54,85.47a1.29,1.29,0,0,1-.65-.17l-5.24-3-.05,0a3,3,0,0,1-.87-.83,3.68,3.68,0,0,1-.51-3.37c.08-.41.46-2.28,1-4.28,1.17-4.31,2.06-5.34,2.77-5.77,1.66-1,8.15-3.28,8.88-3.53A1.32,1.32,0,0,1,66.74,67a79.85,79.85,0,0,0-8.34,3.27c-.65.62-1.84,4.44-2.6,8.4a1.23,1.23,0,0,1,0,.17,1.14,1.14,0,0,0,0,1l.09.13a.35.35,0,0,0,.1.1L61.19,83a1.32,1.32,0,0,1-.65,2.46Z"/><path class="cls-1" d="M55.51,104.84h-.06a5.4,5.4,0,0,1-3.82-1.66l-8.6-9a5.4,5.4,0,0,1,.08-7.5l2.17-2.17a1.32,1.32,0,1,1,1.86,1.86L45,88.54a2.75,2.75,0,0,0,0,3.82l8.6,9a2.75,2.75,0,0,0,1.95.85h0a2.75,2.75,0,0,0,1.93-.8l1.27-1.27A1.32,1.32,0,1,1,60.58,102l-1.27,1.27A5.39,5.39,0,0,1,55.51,104.84Z"/></g></g></svg>