<svg xmlns="http://www.w3.org/2000/svg" viewBox="0 0 118.22 117.86"><defs><style>.cls-1{fill:#e1f5fe;}</style></defs><title>buy_home2</title><g id="Слой_2" data-name="Слой 2"><g id="Icon_set" data-name="Icon set"><path class="cls-1" d="M73.37,89.35H48.16a8.13,8.13,0,0,1-7.84-6L34.77,62.66A1.32,1.32,0,0,1,36,61H86.59a3,3,0,0,1,2.71,4.16L80.8,84.5A8.13,8.13,0,0,1,73.37,89.35ZM37.76,63.64l5.1,19a5.5,5.5,0,0,0,5.3,4.07H73.37a5.5,5.5,0,0,0,5-3.28L86.9,64.1a.34.34,0,0,0,0-.32.33.33,0,0,0-.28-.15Z"/><path class="cls-1" d="M99.56,117.86H18.75a3.89,3.89,0,0,1-3.64-4.09V54.52H1.32a1.32,1.32,0,0,1-.9-2.28L54.72,1.64a6.18,6.18,0,0,1,8.38,0L117.8,52.2a1.31,1.31,0,0,1,.42,1v0a1.32,1.32,0,0,1-1.32,1.32h-13.7v59.25A3.89,3.89,0,0,1,99.56,117.86Zm-94.91-66H16.42a1.32,1.32,0,0,1,1.32,1.32v60.56c0,.78.47,1.46,1,1.46H99.56c.54,0,1-.68,1-1.46V53.2a1.32,1.32,0,0,1,1.32-1.32h11.7L61.32,3.56a3.54,3.54,0,0,0-4.8,0Z"/><path class="cls-1" d="M36,63.64a1.32,1.32,0,0,1-1.26-1l-1.95-6.83a1.62,1.62,0,0,0-1.55-1.17H26.73a1.32,1.32,0,0,1,0-2.63h4.56a4.26,4.26,0,0,1,4.08,3.08l2,6.83a1.32,1.32,0,0,1-.9,1.63A1.34,1.34,0,0,1,36,63.64Z"/><path class="cls-1" d="M46.26,106a6.11,6.11,0,1,1,6.11-6.11A6.11,6.11,0,0,1,46.26,106Zm0-9.58a3.47,3.47,0,1,0,3.48,3.47A3.48,3.48,0,0,0,46.26,96.42Z"/><path class="cls-1" d="M73.86,106A6.11,6.11,0,1,1,80,99.89,6.11,6.11,0,0,1,73.86,106Zm0-9.58a3.47,3.47,0,1,0,3.47,3.47A3.48,3.48,0,0,0,73.86,96.42Z"/></g></g></svg>