<svg xmlns="http://www.w3.org/2000/svg" viewBox="0 0 117.82 118.04"><defs><style>.cls-1{fill:#e1f5fe;}</style></defs><title>big_house</title><g id="Слой_2" data-name="Слой 2"><g id="Icon_set" data-name="Icon set"><path class="cls-1" d="M58.9,117.73a1.32,1.32,0,0,1-1.32-1.32V95.78H47.51v20.63a1.32,1.32,0,1,1-2.63,0V95.51a2.37,2.37,0,0,1,2.37-2.37H57.85a2.37,2.37,0,0,1,2.37,2.37v20.9A1.32,1.32,0,0,1,58.9,117.73Z"/><path class="cls-1" d="M110,118a1.32,1.32,0,0,1-1.32-1.31V103.41h-5.18v13.32a1.32,1.32,0,0,1-2.63,0V103.14a2.37,2.37,0,0,1,2.37-2.37H109a2.37,2.37,0,0,1,2.37,2.37v13.59A1.32,1.32,0,0,1,110,118Z"/><path class="cls-1" d="M114.82,118H3.85A3.67,3.67,0,0,1,0,114.4V68.14A3.87,3.87,0,0,1,4.06,64.5H33a3.87,3.87,0,0,1,4.06,3.64,1.32,1.32,0,1,1-2.63,0c0-.55-.65-1-1.43-1h-29c-.78,0-1.43.46-1.43,1V114.4c0,.6.49,1,1.22,1H94V76.63a3,3,0,0,1,3-3h17.77a3,3,0,0,1,3,3V115A3,3,0,0,1,114.82,118Zm-18.14-2.63h18.14a.39.39,0,0,0,.37-.41V76.63a.39.39,0,0,0-.37-.41H97a.39.39,0,0,0-.37.41Z"/><path class="cls-1" d="M23.24,118a1.32,1.32,0,0,1-1.32-1.31V98.32H15.17v18.41a1.32,1.32,0,0,1-2.63,0V98.06a2.37,2.37,0,0,1,2.37-2.37h7.28a2.37,2.37,0,0,1,2.37,2.37v18.67A1.32,1.32,0,0,1,23.24,118Z"/><path class="cls-1" d="M110.13,76.22a1.31,1.31,0,0,1-1.32-1.31V57.72c0-.55-.66-1-1.43-1h-35c-1,0-1.64.28-1.64.49a1.32,1.32,0,1,1-2.63,0c0-1.89,1.68-3.12,4.27-3.12h35a3.87,3.87,0,0,1,4.06,3.64V74.9A1.31,1.31,0,0,1,110.13,76.22Z"/><path class="cls-1" d="M87.18,118a1.32,1.32,0,0,1-1.32-1.31V98.32H79.11v18.41a1.32,1.32,0,0,1-2.63,0V98.06a2.37,2.37,0,0,1,2.37-2.37h7.28a2.37,2.37,0,0,1,2.37,2.37v18.67A1.32,1.32,0,0,1,87.18,118Z"/><path class="cls-1" d="M69.42,117.73a1.32,1.32,0,0,1-1.32-1.32v-78c0-.81-.52-1.5-1.14-1.5H38.26c-.62,0-1.14.69-1.14,1.5v78a1.32,1.32,0,1,1-2.63,0v-78a4,4,0,0,1,3.77-4.13H67a4,4,0,0,1,3.77,4.13v78A1.32,1.32,0,0,1,69.42,117.73Z"/><path class="cls-1" d="M27.57,66.83a1.32,1.32,0,0,1-1.32-1.32V60.69a.87.87,0,0,0-.87-.87H11.7a.87.87,0,0,0-.87.87v4.82a1.32,1.32,0,1,1-2.63,0V60.69a3.5,3.5,0,0,1,3.5-3.5H25.39a3.5,3.5,0,0,1,3.5,3.5v4.82A1.32,1.32,0,0,1,27.57,66.83Z"/><path class="cls-1" d="M100.79,56.5a1.32,1.32,0,0,1-1.32-1.32V50.48a.87.87,0,0,0-.87-.87H81a.87.87,0,0,0-.87.87v4.71a1.32,1.32,0,1,1-2.63,0V50.48A3.5,3.5,0,0,1,81,47H98.6a3.5,3.5,0,0,1,3.5,3.5v4.71A1.32,1.32,0,0,1,100.79,56.5Z"/><path class="cls-1" d="M52.55,17.21a1.32,1.32,0,0,1-1.32-1.32V1.31a1.32,1.32,0,0,1,2.63,0V15.89A1.32,1.32,0,0,1,52.55,17.21Z"/><path class="cls-1" d="M63.8,36.16a1.32,1.32,0,0,1-1.32-1.31v-6.6a1,1,0,0,0-.33-.82H43.06a1,1,0,0,0-.32.82v6.6a1.32,1.32,0,0,1-2.63,0v-6.6a3.2,3.2,0,0,1,2.95-3.45h19.1a3.2,3.2,0,0,1,2.95,3.45v6.6A1.32,1.32,0,0,1,63.8,36.16Z"/><path class="cls-1" d="M57.68,26.42a1.32,1.32,0,0,1-1.32-1.32V18.59c0-.21-.41-.53-.63-.61H49.32a.84.84,0,0,0-.46.61V25.1a1.32,1.32,0,1,1-2.63,0V18.59a3.37,3.37,0,0,1,2.95-3.25h6.65A3.54,3.54,0,0,1,59,18.59V25.1A1.32,1.32,0,0,1,57.68,26.42Z"/><path class="cls-1" d="M14.86,77.5H9.42a1.32,1.32,0,0,1,0-2.63h5.44a1.32,1.32,0,0,1,0,2.63Z"/><path class="cls-1" d="M27.57,77.5H22.14a1.32,1.32,0,0,1,0-2.63h5.44a1.32,1.32,0,0,1,0,2.63Z"/><path class="cls-1" d="M14.86,87.11H9.42a1.32,1.32,0,1,1,0-2.63h5.44a1.32,1.32,0,1,1,0,2.63Z"/><path class="cls-1" d="M27.57,87.11H22.14a1.32,1.32,0,1,1,0-2.63h5.44a1.32,1.32,0,1,1,0,2.63Z"/><path class="cls-1" d="M85.2,77.5H79.77a1.32,1.32,0,0,1,0-2.63H85.2a1.32,1.32,0,0,1,0,2.63Z"/><path class="cls-1" d="M85.2,87.11H79.77a1.32,1.32,0,1,1,0-2.63H85.2a1.32,1.32,0,1,1,0,2.63Z"/><path class="cls-1" d="M108.86,83.85h-5.44a1.32,1.32,0,0,1,0-2.63h5.44a1.32,1.32,0,0,1,0,2.63Z"/><path class="cls-1" d="M108.86,93.46h-5.44a1.32,1.32,0,0,1,0-2.63h5.44a1.32,1.32,0,0,1,0,2.63Z"/><path class="cls-1" d="M48.91,77.5H43.47a1.32,1.32,0,0,1,0-2.63h5.44a1.32,1.32,0,0,1,0,2.63Z"/><path class="cls-1" d="M61.62,77.5H56.19a1.32,1.32,0,0,1,0-2.63h5.44a1.32,1.32,0,0,1,0,2.63Z"/><path class="cls-1" d="M48.91,87.11H43.47a1.32,1.32,0,1,1,0-2.63h5.44a1.32,1.32,0,1,1,0,2.63Z"/><path class="cls-1" d="M61.62,87.11H56.19a1.32,1.32,0,1,1,0-2.63h5.44a1.32,1.32,0,0,1,0,2.63Z"/><path class="cls-1" d="M48.91,58.29H43.47a1.32,1.32,0,0,1,0-2.63h5.44a1.32,1.32,0,0,1,0,2.63Z"/><path class="cls-1" d="M61.62,58.29H56.19a1.32,1.32,0,0,1,0-2.63h5.44a1.32,1.32,0,0,1,0,2.63Z"/><path class="cls-1" d="M48.91,48.69H43.47a1.32,1.32,0,1,1,0-2.63h5.44a1.32,1.32,0,1,1,0,2.63Z"/><path class="cls-1" d="M61.62,48.69H56.19a1.32,1.32,0,1,1,0-2.63h5.44a1.32,1.32,0,0,1,0,2.63Z"/><path class="cls-1" d="M48.91,67.9H43.47a1.32,1.32,0,0,1,0-2.63h5.44a1.32,1.32,0,0,1,0,2.63Z"/><path class="cls-1" d="M61.62,67.9H56.19a1.32,1.32,0,0,1,0-2.63h5.44a1.32,1.32,0,0,1,0,2.63Z"/><path class="cls-1" d="M85.2,67.9H79.77a1.32,1.32,0,0,1,0-2.63H85.2a1.32,1.32,0,0,1,0,2.63Z"/><path class="cls-1" d="M100.63,67.9H95.2a1.32,1.32,0,0,1,0-2.63h5.44a1.32,1.32,0,0,1,0,2.63Z"/></g></g></svg>