<svg xmlns="http://www.w3.org/2000/svg" viewBox="0 0 118.07 118.04"><defs><style>.cls-1{fill:#e1f5fe;}</style></defs><title>home_loan_1</title><g id="Слой_2" data-name="Слой 2"><g id="Icon_set" data-name="Icon set"><path class="cls-1" d="M30.37,64.69A28.88,28.88,0,1,1,59.26,93.57,28.91,28.91,0,0,1,30.37,64.69Zm2.63,0A26.25,26.25,0,1,0,59.26,38.44,26.28,26.28,0,0,0,33,64.69Z"/><path class="cls-1" d="M51.45,63.42a6,6,0,1,1,6-6A6.05,6.05,0,0,1,51.45,63.42Zm0-9.46a3.41,3.41,0,1,0,3.41,3.41A3.42,3.42,0,0,0,51.45,54Z"/><path class="cls-1" d="M67.11,79.54a6,6,0,1,1,6-6A6.05,6.05,0,0,1,67.11,79.54Zm0-9.46a3.41,3.41,0,1,0,3.41,3.41A3.42,3.42,0,0,0,67.11,70.09Z"/><path class="cls-1" d="M51.59,78.05a1.3,1.3,0,0,1-.71-.21,1.32,1.32,0,0,1-.4-1.82L65.9,51.94a1.32,1.32,0,0,1,2.22,1.42L52.7,77.45A1.31,1.31,0,0,1,51.59,78.05Z"/><path class="cls-1" d="M99.44,118H18.72a3.89,3.89,0,0,1-3.64-4.09V55.13H1.32a1.32,1.32,0,0,1-.9-2.27L54.67,1.66a6.15,6.15,0,0,1,8.35,0l54.64,51.21a1.32,1.32,0,0,1-.9,2.28l-13.69,0v58.83A3.89,3.89,0,0,1,99.44,118ZM4.63,52.5H16.4a1.31,1.31,0,0,1,1.32,1.31v60.14c0,.78.47,1.46,1,1.46H99.44c.54,0,1-.68,1-1.46V53.81a1.31,1.31,0,0,1,1.31-1.31l11.68,0L61.23,3.54a3.52,3.52,0,0,0-4.76,0Z"/></g></g></svg>