<svg xmlns="http://www.w3.org/2000/svg" viewBox="0 0 110.06 118.04"><defs><style>.cls-1{fill:#e1f5fe;}</style></defs><title>home_insurence</title><g id="Слой_2" data-name="Слой 2"><g id="Icon_set" data-name="Icon set"><path class="cls-1" d="M98.14,118H48.75A2.83,2.83,0,0,1,46,115.13V80.53H38.1a1.32,1.32,0,0,1-.9-2.28l31.9-29.73a6.22,6.22,0,0,1,8.4,0l32,29.65a1.32,1.32,0,0,1,.57,1.08h0a1.32,1.32,0,0,1-1.53,1.31h-7.65v34.6A2.83,2.83,0,0,1,98.14,118ZM41.44,77.9h5.89a1.32,1.32,0,0,1,1.32,1.32v35.91a.32.32,0,0,0,.12.28H98.14a.35.35,0,0,0,.11-.27V79.22a1.32,1.32,0,0,1,1.32-1.32h5.81L75.72,50.42a3.58,3.58,0,0,0-4.82,0Z"/><path class="cls-1" d="M62.87,36.62a3.91,3.91,0,0,1-2.34-.77,23.63,23.63,0,0,0-14-4.55,20.54,20.54,0,0,0-13,4.38,3.94,3.94,0,0,1-4.79.13,22.9,22.9,0,0,0-13.1-4.5,22.47,22.47,0,0,0-11.25,3A2.91,2.91,0,0,1,.09,31.08c1.77-7.06,8-14.89,16.73-21C26.2,3.6,36.92,0,47,0S67.84,3.57,77.13,10c8.62,6,14.88,13.9,16.72,21.1A2.91,2.91,0,0,1,91,34.78h0a2.92,2.92,0,0,1-1.42-.37A23.84,23.84,0,0,0,78.1,31.29a22.39,22.39,0,0,0-12.89,4.56A3.91,3.91,0,0,1,62.87,36.62Zm-16.32-8A26.28,26.28,0,0,1,62.1,33.73a1.33,1.33,0,0,0,1.55,0A25,25,0,0,1,78.1,28.66a26.47,26.47,0,0,1,12.8,3.46.27.27,0,0,0,.14,0,.28.28,0,0,0,.17-.06.28.28,0,0,0,.1-.29c-1.7-6.61-7.56-13.94-15.68-19.6C66.77,6,56.6,2.63,47,2.63c-20.52,0-41,15.91-44.36,29.09a.28.28,0,0,0,.11.29.27.27,0,0,0,.17.06.28.28,0,0,0,.14,0,25.11,25.11,0,0,1,12.57-3.37,25.55,25.55,0,0,1,14.65,5,1.33,1.33,0,0,0,1.59,0A23.18,23.18,0,0,1,46.56,28.66Z"/><path class="cls-1" d="M47.33,65A1.31,1.31,0,0,1,46,63.64V30a1.32,1.32,0,1,1,2.63,0V63.64A1.31,1.31,0,0,1,47.33,65Z"/></g></g></svg>