<svg xmlns="http://www.w3.org/2000/svg" viewBox="0 0 118.22 118.03"><defs><style>.cls-1{fill:#e1f5fe;}</style></defs><title>home_worth</title><g id="Слой_2" data-name="Слой 2"><g id="Icon_set" data-name="Icon set"><path class="cls-1" d="M99.56,118H18.75a3.89,3.89,0,0,1-3.64-4.09V54.53H1.32a1.32,1.32,0,0,1-.9-2.28L54.75,1.64a6.19,6.19,0,0,1,8.35,0L117.8,52.21a1.32,1.32,0,0,1,.42,1v0a1.32,1.32,0,0,1-1.32,1.32h-13.7v59.41A3.89,3.89,0,0,1,99.56,118ZM4.66,51.9H16.42a1.31,1.31,0,0,1,1.32,1.31v60.72c0,.78.47,1.46,1,1.46H99.56c.54,0,1-.68,1-1.46V53.22a1.31,1.31,0,0,1,1.31-1.31h11.7L61.31,3.54a3.54,3.54,0,0,0-4.78,0Z"/><path class="cls-1" d="M76.35,101.05H42a1.32,1.32,0,0,1,0-2.63H76.35a1.32,1.32,0,0,1,0,2.63Z"/><path class="cls-1" d="M76.35,89.21H42a1.32,1.32,0,0,1,0-2.63H76.35a1.32,1.32,0,1,1,0,2.63Z"/><path class="cls-1" d="M59.11,78.23A18.55,18.55,0,1,1,77.66,59.68,18.57,18.57,0,0,1,59.11,78.23Zm0-34.47A15.92,15.92,0,1,0,75,59.68,15.94,15.94,0,0,0,59.11,43.76Z"/><path class="cls-1" d="M59.69,68.31h-.57C55,68.08,53,66.32,53,63.08a1.32,1.32,0,0,1,2.63,0c0,1.21.28,2.4,3.66,2.58a4.07,4.07,0,0,0,2.9-.69,1.76,1.76,0,0,0,.54-1.3c0-1.21.06-1.77-3.95-2.65S53,58.46,53,55.71c0-1.08.45-4.62,6.21-4.62,4.54,0,5.62,3.48,5.65,4.82a1.32,1.32,0,0,1-2.63.08c0-.54-.33-2.27-3-2.27-1.63,0-3.58.35-3.58,2,0,.62,0,1.92,3.72,2.74,4.16.92,6.13,2,6,5.31a4.37,4.37,0,0,1-1.4,3.15A6.15,6.15,0,0,1,59.69,68.31Z"/><path class="cls-1" d="M59.19,70.4a1.32,1.32,0,0,1-1.32-1.32V50.21a1.32,1.32,0,1,1,2.63,0V69.08A1.32,1.32,0,0,1,59.19,70.4Z"/></g></g></svg>