<svg xmlns="http://www.w3.org/2000/svg" viewBox="0 0 118.22 118.27"><defs><style>.cls-1{fill:#e1f5fe;}</style></defs><title>house</title><g id="Слой_2" data-name="Слой 2"><g id="Icon_set" data-name="Icon set"><path class="cls-1" d="M99.56,118.27H18.74a3.89,3.89,0,0,1-3.64-4.09V54.55H1.32a1.32,1.32,0,0,1-.9-2.28L54.74,1.65a6.16,6.16,0,0,1,8.35,0L117.8,52.23a1.32,1.32,0,0,1-.89,2.28l-13.7,0v59.63A3.89,3.89,0,0,1,99.56,118.27ZM4.66,51.91H16.42a1.32,1.32,0,0,1,1.32,1.32v60.95c0,.78.47,1.46,1,1.46H99.56c.54,0,1-.68,1-1.46V53.23a1.32,1.32,0,0,1,1.31-1.32l11.67,0L61.31,3.55a3.53,3.53,0,0,0-4.78,0Z"/></g></g></svg>