<svg xmlns="http://www.w3.org/2000/svg" viewBox="0 0 118.05 118.02"><defs><style>.cls-1{fill:#e1f5fe;}</style></defs><title>mailbox</title><g id="Слой_2" data-name="Слой 2"><g id="Icon_set" data-name="Icon set"><path class="cls-1" d="M60.06,69a1.32,1.32,0,0,1-1.32-1.32V34.18A16.79,16.79,0,0,0,42.08,17.3,17.41,17.41,0,0,0,24.8,34.8V65.2a1.2,1.2,0,0,0,1.2,1.2A1.32,1.32,0,0,1,26,69a3.83,3.83,0,0,1-3.83-3.83V34.8A20.11,20.11,0,0,1,28,20.62a19.64,19.64,0,0,1,14.09-6,19,19,0,0,1,13.65,5.77,19.5,19.5,0,0,1,5.64,13.75V67.71A1.32,1.32,0,0,1,60.06,69Z"/><path class="cls-1" d="M114.22,69H60.06a1.32,1.32,0,0,1,0-2.63h54.15a1.2,1.2,0,0,0,1.2-1.2v-31A16.8,16.8,0,0,0,98.75,17.3H42.25a1.32,1.32,0,1,1,0-2.63h56.5a19,19,0,0,1,13.65,5.77A19.5,19.5,0,0,1,118,34.18v31A3.83,3.83,0,0,1,114.22,69Z"/><path class="cls-1" d="M55.46,73.63H5.92A5.92,5.92,0,0,1,0,67.71a1.32,1.32,0,0,1,1.32-1.32H60.06a1.32,1.32,0,0,1,1.32,1.32A5.92,5.92,0,0,1,55.46,73.63ZM2.91,69a3.29,3.29,0,0,0,3,2H55.46a3.29,3.29,0,0,0,3-2Z"/><path class="cls-1" d="M74.62,118H64a1.32,1.32,0,0,1-1.32-1.32v-49a1.32,1.32,0,1,1,2.63,0v47.68h8V67.71a1.32,1.32,0,1,1,2.63,0v49A1.31,1.31,0,0,1,74.62,118Z"/><path class="cls-1" d="M68,69a1.32,1.32,0,0,1-1.32-1.32V1.32A1.32,1.32,0,0,1,68,0H79.1a1.32,1.32,0,0,1,1.32,1.32V8.55A1.32,1.32,0,0,1,79.1,9.87H69.35V67.71A1.32,1.32,0,0,1,68,69ZM69.35,7.24h8.43V2.63H69.35Z"/></g></g></svg>