<svg xmlns="http://www.w3.org/2000/svg" viewBox="0 0 118.03 116.04"><defs><style>.cls-1{fill:#e1f5fe;}</style></defs><title>open_house_1</title><g id="Слой_2" data-name="Слой 2"><g id="Icon_set" data-name="Icon set"><path class="cls-1" d="M114.07,60.7H43.58a3.85,3.85,0,0,1-4-3.71V41.38a1.32,1.32,0,1,1,2.63,0V57a1.24,1.24,0,0,0,1.33,1.08h70.49A1.22,1.22,0,0,0,115.4,57V3.71a1.22,1.22,0,0,0-1.33-1.07H43.58a1.22,1.22,0,0,0-1.33,1.07V21.49a1.32,1.32,0,1,1-2.63,0V3.71a3.84,3.84,0,0,1,4-3.71h70.49a3.84,3.84,0,0,1,4,3.71V57A3.84,3.84,0,0,1,114.07,60.7Z"/><path class="cls-1" d="M6.29,91.65h-5a1.32,1.32,0,0,1,0-2.63h5a1.32,1.32,0,0,1,0,2.63Z"/><path class="cls-1" d="M46.51,91.65H30A1.32,1.32,0,0,1,30,89H46.51a1.32,1.32,0,0,1,0,2.63Z"/><path class="cls-1" d="M86.29,91.65H69.82a1.32,1.32,0,0,1,0-2.63H86.29a1.32,1.32,0,0,1,0,2.63Z"/><path class="cls-1" d="M116.71,91.65h-5.55a1.32,1.32,0,0,1,0-2.63h5.55a1.32,1.32,0,0,1,0,2.63Z"/><path class="cls-1" d="M14.61,18.51a9.25,9.25,0,1,1,9.23-9.25A9.25,9.25,0,0,1,14.61,18.51Zm0-15.87a6.62,6.62,0,1,0,6.6,6.62A6.62,6.62,0,0,0,14.61,2.63Z"/><path class="cls-1" d="M14.61,44.14a1.32,1.32,0,0,1-1.32-1.32v-9.3a1.32,1.32,0,1,1,2.63,0v9.3A1.32,1.32,0,0,1,14.61,44.14Z"/><path class="cls-1" d="M14.61,28.29A1.32,1.32,0,0,1,13.29,27V25a1.32,1.32,0,1,1,2.63,0v2A1.32,1.32,0,0,1,14.61,28.29Z"/><path class="cls-1" d="M7.74,62.24a1.32,1.32,0,0,1-1.32-1.32V50a1.32,1.32,0,1,1,2.63,0V60.93A1.32,1.32,0,0,1,7.74,62.24Z"/><path class="cls-1" d="M7.74,81.37a1.31,1.31,0,0,1-1.32-1.31V60.93a1.32,1.32,0,1,1,2.63,0V80.05A1.31,1.31,0,0,1,7.74,81.37Z"/><path class="cls-1" d="M21.48,75.92a1.32,1.32,0,0,1-1.32-1.32V50a1.32,1.32,0,1,1,2.63,0V74.6A1.32,1.32,0,0,1,21.48,75.92Z"/><path class="cls-1" d="M1.32,54.43A1.32,1.32,0,0,1,0,53.12V28.84a6.15,6.15,0,0,1,6.14-6.15h9.23a1.32,1.32,0,1,1,0,2.63H6.14a3.52,3.52,0,0,0-3.51,3.52V53.12A1.31,1.31,0,0,1,1.32,54.43Z"/><path class="cls-1" d="M44.42,29.59a1.32,1.32,0,0,1-.8-2.36L58.13,16.14a1.32,1.32,0,0,1,1.6,2.09L45.22,29.32A1.31,1.31,0,0,1,44.42,29.59Z"/><path class="cls-1" d="M30.19,40.14a2.46,2.46,0,0,1-1-.19,2.49,2.49,0,0,1-1.5-2l-1.14-9a1.34,1.34,0,0,1,0-.17,3.52,3.52,0,0,0-3.51-3.52H13.85a1.32,1.32,0,1,1,0-2.63h9.23a6.15,6.15,0,0,1,6.14,6.06l1.1,8.63,9.38-7.19a1.32,1.32,0,0,1,1.6,2.09L31.7,39.63A2.48,2.48,0,0,1,30.19,40.14Z"/><path class="cls-1" d="M78.82,89.78a1.31,1.31,0,0,1-1.32-1.31v-28a1.32,1.32,0,1,1,2.63,0v28A1.31,1.31,0,0,1,78.82,89.78Z"/><path class="cls-1" d="M18.16,99.93A13.22,13.22,0,1,1,31.36,86.7,13.22,13.22,0,0,1,18.16,99.93Zm0-23.82A10.59,10.59,0,1,0,28.72,86.7,10.59,10.59,0,0,0,18.16,76.11Z"/><path class="cls-1" d="M34.58,116a1.32,1.32,0,0,1-1.32-1.32V110a3.86,3.86,0,0,0-3.85-3.86H7.11A3.86,3.86,0,0,0,3.26,110v4.74a1.32,1.32,0,1,1-2.63,0V110a6.49,6.49,0,0,1,6.48-6.49H29.42A6.49,6.49,0,0,1,35.9,110v4.74A1.32,1.32,0,0,1,34.58,116Z"/><path class="cls-1" d="M18.16,108.73a1.32,1.32,0,0,1-1.32-1.32v-2a1.32,1.32,0,1,1,2.63,0v2A1.32,1.32,0,0,1,18.16,108.73Z"/><path class="cls-1" d="M98.61,99.93A13.22,13.22,0,1,1,111.8,86.7,13.22,13.22,0,0,1,98.61,99.93Zm0-23.82A10.59,10.59,0,1,0,109.17,86.7,10.59,10.59,0,0,0,98.61,76.11Z"/><path class="cls-1" d="M115,116a1.32,1.32,0,0,1-1.32-1.32V110a3.86,3.86,0,0,0-3.85-3.86H87.56A3.86,3.86,0,0,0,83.71,110v4.74a1.32,1.32,0,1,1-2.63,0V110a6.49,6.49,0,0,1,6.48-6.49h22.31a6.49,6.49,0,0,1,6.48,6.49v4.74A1.32,1.32,0,0,1,115,116Z"/><path class="cls-1" d="M98.61,108.73a1.32,1.32,0,0,1-1.32-1.32v-2a1.32,1.32,0,1,1,2.63,0v2A1.32,1.32,0,0,1,98.61,108.73Z"/><path class="cls-1" d="M58.39,99.93A13.22,13.22,0,1,1,71.58,86.7,13.22,13.22,0,0,1,58.39,99.93Zm0-23.82A10.59,10.59,0,1,0,68.95,86.7,10.59,10.59,0,0,0,58.39,76.11Z"/><path class="cls-1" d="M74.81,116a1.32,1.32,0,0,1-1.32-1.32V110a3.86,3.86,0,0,0-3.85-3.86H47.33A3.86,3.86,0,0,0,43.49,110v4.74a1.32,1.32,0,1,1-2.63,0V110a6.49,6.49,0,0,1,6.48-6.49H69.64A6.49,6.49,0,0,1,76.12,110v4.74A1.32,1.32,0,0,1,74.81,116Z"/><path class="cls-1" d="M58.39,108.73a1.32,1.32,0,0,1-1.32-1.32v-2a1.32,1.32,0,1,1,2.63,0v2A1.32,1.32,0,0,1,58.39,108.73Z"/><path class="cls-1" d="M18.16,115.33A1.32,1.32,0,0,1,16.85,114V112.9a1.32,1.32,0,0,1,2.63,0V114A1.32,1.32,0,0,1,18.16,115.33Z"/><path class="cls-1" d="M98.61,115.33A1.32,1.32,0,0,1,97.29,114V112.9a1.32,1.32,0,0,1,2.63,0V114A1.32,1.32,0,0,1,98.61,115.33Z"/><path class="cls-1" d="M58.39,115.33A1.32,1.32,0,0,1,57.07,114V112.9a1.32,1.32,0,0,1,2.63,0V114A1.32,1.32,0,0,1,58.39,115.33Z"/><path class="cls-1" d="M79.38,42.85l-.59,0c-4.21-.23-6.34-2-6.34-5.37a1.32,1.32,0,1,1,2.63,0c0,1.23.3,2.55,3.85,2.75a4.25,4.25,0,0,0,3-.73,1.88,1.88,0,0,0,.59-1.4c0-1.29.07-1.88-4.15-2.82s-6-2.64-6-5.48c0-1.12.46-4.77,6.41-4.77,4.51,0,5.78,3.25,5.82,5a1.32,1.32,0,0,1-2.63.07c0-.41-.27-2.41-3.19-2.41-1.72,0-3.78.37-3.78,2.13,0,.66,0,2,3.91,2.91,4.3,1,6.33,2,6.21,5.48a4.5,4.5,0,0,1-1.44,3.25A6.33,6.33,0,0,1,79.38,42.85Z"/><path class="cls-1" d="M78.86,45a1.32,1.32,0,0,1-1.32-1.31V24a1.32,1.32,0,1,1,2.63,0V43.71A1.32,1.32,0,0,1,78.86,45Z"/><path class="cls-1" d="M93.12,51.64H64.7a2.22,2.22,0,0,1-2.13-2.29V30h-4a1.32,1.32,0,0,1-.9-2.28L76.78,9.87a3,3,0,0,1,4.1,0L100.12,27.7A1.32,1.32,0,0,1,99.23,30h-4V49.34A2.22,2.22,0,0,1,93.12,51.64ZM65.2,49H92.63V28.68a1.32,1.32,0,0,1,1.31-1.32h1.94L79.09,11.79a.37.37,0,0,0-.25-.1.38.38,0,0,0-.26.1L61.91,27.36h2a1.32,1.32,0,0,1,1.32,1.32Z"/></g></g></svg>