<svg xmlns="http://www.w3.org/2000/svg" viewBox="0 0 48.04 118.09"><defs><style>.cls-1{fill:#e1f5fe;}</style></defs><title>premium_house2</title><g id="Слой_2" data-name="Слой 2"><g id="Icon_set" data-name="Icon set"><path class="cls-1" d="M30.42,117.73a1.32,1.32,0,0,1-1.32-1.32V95.78H19v20.63a1.32,1.32,0,1,1-2.63,0V95.51a2.37,2.37,0,0,1,2.37-2.37H29.36a2.37,2.37,0,0,1,2.37,2.37v20.9A1.32,1.32,0,0,1,30.42,117.73Z"/><path class="cls-1" d="M43.43,118.09H4.61A4.61,4.61,0,0,1,0,113.49V38.8A4.61,4.61,0,0,1,4.61,34.2H43.43A4.61,4.61,0,0,1,48,38.8v74.68A4.61,4.61,0,0,1,43.43,118.09ZM4.61,36.83a2,2,0,0,0-2,2v74.68a2,2,0,0,0,2,2H43.43a2,2,0,0,0,2-2V38.8a2,2,0,0,0-2-2Z"/><path class="cls-1" d="M24.06,17.21a1.32,1.32,0,0,1-1.32-1.32V1.31a1.32,1.32,0,0,1,2.63,0V15.89A1.32,1.32,0,0,1,24.06,17.21Z"/><path class="cls-1" d="M41.31,36.16A1.32,1.32,0,0,1,40,34.84v-6.6a1,1,0,0,0-.33-.82H8.57a1,1,0,0,0-.32.82v6.6a1.32,1.32,0,0,1-2.63,0v-6.6a3.2,3.2,0,0,1,2.95-3.45h31.1a3.2,3.2,0,0,1,2.95,3.45v6.6A1.32,1.32,0,0,1,41.31,36.16Z"/><path class="cls-1" d="M29.19,26.42a1.32,1.32,0,0,1-1.32-1.32V18.59c0-.21-.41-.53-.63-.61H20.83a.84.84,0,0,0-.46.61V25.1a1.32,1.32,0,1,1-2.63,0V18.59a3.37,3.37,0,0,1,2.95-3.25h6.65a3.54,3.54,0,0,1,3.16,3.25V25.1A1.32,1.32,0,0,1,29.19,26.42Z"/><path class="cls-1" d="M14.42,77.5H9a1.32,1.32,0,0,1,0-2.63h5.44a1.32,1.32,0,0,1,0,2.63Z"/><path class="cls-1" d="M27.13,77.5H21.7a1.32,1.32,0,0,1,0-2.63h5.44a1.32,1.32,0,0,1,0,2.63Z"/><path class="cls-1" d="M14.42,87.11H9a1.32,1.32,0,1,1,0-2.63h5.44a1.32,1.32,0,1,1,0,2.63Z"/><path class="cls-1" d="M27.13,87.11H21.7a1.32,1.32,0,1,1,0-2.63h5.44a1.32,1.32,0,0,1,0,2.63Z"/><path class="cls-1" d="M14.42,58.29H9a1.32,1.32,0,0,1,0-2.63h5.44a1.32,1.32,0,0,1,0,2.63Z"/><path class="cls-1" d="M27.13,58.29H21.7a1.32,1.32,0,0,1,0-2.63h5.44a1.32,1.32,0,0,1,0,2.63Z"/><path class="cls-1" d="M14.42,48.69H9a1.32,1.32,0,1,1,0-2.63h5.44a1.32,1.32,0,1,1,0,2.63Z"/><path class="cls-1" d="M27.13,48.69H21.7a1.32,1.32,0,1,1,0-2.63h5.44a1.32,1.32,0,0,1,0,2.63Z"/><path class="cls-1" d="M14.42,67.9H9a1.32,1.32,0,0,1,0-2.63h5.44a1.32,1.32,0,0,1,0,2.63Z"/><path class="cls-1" d="M27.13,67.9H21.7a1.32,1.32,0,0,1,0-2.63h5.44a1.32,1.32,0,0,1,0,2.63Z"/><path class="cls-1" d="M39.31,77.5H33.87a1.32,1.32,0,0,1,0-2.63h5.44a1.32,1.32,0,0,1,0,2.63Z"/><path class="cls-1" d="M39.31,87.11H33.87a1.32,1.32,0,1,1,0-2.63h5.44a1.32,1.32,0,0,1,0,2.63Z"/><path class="cls-1" d="M39.31,58.29H33.87a1.32,1.32,0,0,1,0-2.63h5.44a1.32,1.32,0,0,1,0,2.63Z"/><path class="cls-1" d="M39.31,48.69H33.87a1.32,1.32,0,1,1,0-2.63h5.44a1.32,1.32,0,0,1,0,2.63Z"/><path class="cls-1" d="M39.31,67.9H33.87a1.32,1.32,0,0,1,0-2.63h5.44a1.32,1.32,0,0,1,0,2.63Z"/></g></g></svg>