<svg xmlns="http://www.w3.org/2000/svg" viewBox="0 0 103.51 118.11"><defs><style>.cls-1{fill:#e1f5fe;}</style></defs><title>premium_house</title><g id="Слой_2" data-name="Слой 2"><g id="Icon_set" data-name="Icon set"><path class="cls-1" d="M81.87,112a1.32,1.32,0,0,1-1.32-1.31V87.55a.67.67,0,0,0-.67-.67H69.31a.67.67,0,0,0-.67.67v23.11a1.32,1.32,0,0,1-2.63,0V87.55a3.3,3.3,0,0,1,3.3-3.3H79.89a3.3,3.3,0,0,1,3.3,3.3v23.11A1.32,1.32,0,0,1,81.87,112Z"/><path class="cls-1" d="M92.1,118.11H11.4a4.61,4.61,0,0,1-4.61-4.61V22.37a4.61,4.61,0,0,1,4.61-4.61,1.32,1.32,0,1,1,0,2.63,2,2,0,0,0-2,2v91.14a2,2,0,0,0,2,2H92.1a2,2,0,0,0,2-2V22.37a2,2,0,0,0-2-2,1.32,1.32,0,0,1,0-2.63,4.61,4.61,0,0,1,4.61,4.61v91.14A4.61,4.61,0,0,1,92.1,118.11Z"/><path class="cls-1" d="M99,20.31H4.54A4.37,4.37,0,0,1,0,15.7V4.61A4.37,4.37,0,0,1,4.54,0H99a4.37,4.37,0,0,1,4.54,4.61V15.7A4.38,4.38,0,0,1,99,20.31ZM4.54,2.63a1.76,1.76,0,0,0-1.91,2V15.7a1.77,1.77,0,0,0,1.91,2H99a1.77,1.77,0,0,0,1.91-2V4.61a1.76,1.76,0,0,0-1.91-2Z"/><path class="cls-1" d="M30.86,48.2H20.62a3.3,3.3,0,0,1-3.3-3.3V34.48a3.3,3.3,0,0,1,3.3-3.3H30.86a3.3,3.3,0,0,1,3.3,3.3V44.9A3.3,3.3,0,0,1,30.86,48.2ZM20.62,33.82a.67.67,0,0,0-.66.67V44.9a.67.67,0,0,0,.66.67H30.86a.67.67,0,0,0,.67-.67V34.48a.67.67,0,0,0-.67-.67Z"/><path class="cls-1" d="M55.2,48.2H45a3.3,3.3,0,0,1-3.3-3.3V34.48a3.3,3.3,0,0,1,3.3-3.3H55.2a3.3,3.3,0,0,1,3.3,3.3V44.9A3.3,3.3,0,0,1,55.2,48.2ZM45,33.82a.67.67,0,0,0-.67.67V44.9a.67.67,0,0,0,.67.67H55.2a.67.67,0,0,0,.67-.67V34.48a.67.67,0,0,0-.67-.67Z"/><path class="cls-1" d="M79.54,48.2H69.31A3.3,3.3,0,0,1,66,44.9V34.48a3.3,3.3,0,0,1,3.3-3.3H79.54a3.3,3.3,0,0,1,3.3,3.3V44.9A3.3,3.3,0,0,1,79.54,48.2ZM69.31,33.82a.67.67,0,0,0-.67.67V44.9a.67.67,0,0,0,.67.67H79.54a.67.67,0,0,0,.67-.67V34.48a.67.67,0,0,0-.67-.67Z"/><path class="cls-1" d="M30.86,74.74H20.62a3.3,3.3,0,0,1-3.3-3.3V61a3.3,3.3,0,0,1,3.3-3.29H30.86A3.3,3.3,0,0,1,34.16,61V71.44A3.3,3.3,0,0,1,30.86,74.74ZM20.62,60.35A.67.67,0,0,0,20,61V71.44a.67.67,0,0,0,.66.67H30.86a.67.67,0,0,0,.67-.67V61a.67.67,0,0,0-.67-.66Z"/><path class="cls-1" d="M55.2,74.74H45a3.3,3.3,0,0,1-3.3-3.3V61A3.3,3.3,0,0,1,45,57.72H55.2A3.3,3.3,0,0,1,58.5,61V71.44A3.3,3.3,0,0,1,55.2,74.74ZM45,60.35a.67.67,0,0,0-.67.66V71.44a.67.67,0,0,0,.67.67H55.2a.67.67,0,0,0,.67-.67V61a.67.67,0,0,0-.67-.66Z"/><path class="cls-1" d="M79.54,74.74H69.31a3.3,3.3,0,0,1-3.3-3.3V61a3.3,3.3,0,0,1,3.3-3.29H79.54A3.3,3.3,0,0,1,82.84,61V71.44A3.3,3.3,0,0,1,79.54,74.74ZM69.31,60.35a.67.67,0,0,0-.67.66V71.44a.67.67,0,0,0,.67.67H79.54a.67.67,0,0,0,.67-.67V61a.67.67,0,0,0-.67-.66Z"/><path class="cls-1" d="M30.86,101.27H20.62a3.3,3.3,0,0,1-3.3-3.3V87.55a3.3,3.3,0,0,1,3.3-3.3H30.86a3.3,3.3,0,0,1,3.3,3.3V98A3.3,3.3,0,0,1,30.86,101.27ZM20.62,86.88a.67.67,0,0,0-.66.67V98a.66.66,0,0,0,.66.66H30.86a.67.67,0,0,0,.67-.66V87.55a.67.67,0,0,0-.67-.67Z"/><path class="cls-1" d="M55.2,101.27H45a3.3,3.3,0,0,1-3.3-3.3V87.55a3.3,3.3,0,0,1,3.3-3.3H55.2a3.3,3.3,0,0,1,3.3,3.3V98A3.3,3.3,0,0,1,55.2,101.27ZM45,86.88a.67.67,0,0,0-.67.67V98a.67.67,0,0,0,.67.66H55.2a.67.67,0,0,0,.67-.66V87.55a.67.67,0,0,0-.67-.67Z"/><path class="cls-1" d="M83.33,112.68H66A1.32,1.32,0,1,1,66,110H83.33a1.32,1.32,0,0,1,0,2.63Z"/></g></g></svg>