<svg xmlns="http://www.w3.org/2000/svg" viewBox="0 0 101.53 118.16"><defs><style>.cls-1{fill:#e1f5fe;}</style></defs><title>price_reduced</title><g id="Слой_2" data-name="Слой 2"><g id="Icon_set" data-name="Icon set"><path class="cls-1" d="M85.37,99.25H16.23a3.52,3.52,0,0,1-3.3-3.69V46.74H1.32a1.32,1.32,0,0,1-.9-2.28L46.35,1.67a6.3,6.3,0,0,1,8.49,0L101.1,44.32a1.31,1.31,0,0,1,.42,1s0,0,0,.07a1.32,1.32,0,0,1-1.32,1.32H88.68V95.56A3.52,3.52,0,0,1,85.37,99.25ZM4.66,44.11h9.58a1.32,1.32,0,0,1,1.32,1.32V95.56c0,.61.36,1.06.67,1.06H85.37c.32,0,.67-.45.67-1.06V45.43a1.32,1.32,0,0,1,1.32-1.32H97L53.07,3.56a3.65,3.65,0,0,0-4.92,0Z"/><path class="cls-1" d="M92.2,118.16a1.32,1.32,0,0,1-.76-2.39l6.85-4.86a1.43,1.43,0,0,0,0-2.33l-7-4.84a1.32,1.32,0,1,1,1.5-2.16l7,4.83a4.06,4.06,0,0,1,0,6.64L93,117.91A1.32,1.32,0,0,1,92.2,118.16Z"/><path class="cls-1" d="M99.52,111.07H1.32a1.32,1.32,0,0,1,0-2.63H99.52a1.32,1.32,0,0,1,0,2.63Z"/><path class="cls-1" d="M35.3,99.25A1.32,1.32,0,0,1,34,97.93V63.39a.43.43,0,0,0-.43-.43h-7a.43.43,0,0,0-.43.43V97.93a1.32,1.32,0,0,1-2.63,0V63.39a3.07,3.07,0,0,1,3.07-3.07h7a3.07,3.07,0,0,1,3.07,3.07V97.93A1.32,1.32,0,0,1,35.3,99.25Z"/><path class="cls-1" d="M55.9,99.25a1.32,1.32,0,0,1-1.32-1.32V54.88a.43.43,0,0,0-.43-.43h-7a.43.43,0,0,0-.43.43V97.93a1.32,1.32,0,0,1-2.63,0V54.88a3.07,3.07,0,0,1,3.06-3.06h7a3.07,3.07,0,0,1,3.06,3.06V97.93A1.31,1.31,0,0,1,55.9,99.25Z"/><path class="cls-1" d="M76.51,99.25a1.32,1.32,0,0,1-1.32-1.32V45.09a.43.43,0,0,0-.43-.43h-7a.43.43,0,0,0-.43.43V97.93a1.32,1.32,0,1,1-2.63,0V45.09A3.07,3.07,0,0,1,67.72,42h7a3.07,3.07,0,0,1,3.06,3.06V97.93A1.32,1.32,0,0,1,76.51,99.25Z"/></g></g></svg>