<svg xmlns="http://www.w3.org/2000/svg" viewBox="0 0 118.01 105.81"><defs><style>.cls-1{fill:#e1f5fe;}</style></defs><title>research_neighborhood</title><g id="Слой_2" data-name="Слой 2"><g id="Icon_set" data-name="Icon set"><path class="cls-1" d="M112,88H6.06A6.13,6.13,0,0,1,0,81.81V6.19A6.13,6.13,0,0,1,6.06,0H112A6.13,6.13,0,0,1,118,6.19V81.81A6.13,6.13,0,0,1,112,88ZM6.06,2.63A3.5,3.5,0,0,0,2.63,6.19V81.81a3.5,3.5,0,0,0,3.43,3.56H112a3.5,3.5,0,0,0,3.43-3.56V6.19A3.5,3.5,0,0,0,112,2.63Z"/><path class="cls-1" d="M116.69,72.12H1.75a1.32,1.32,0,0,1,0-2.63H116.69a1.32,1.32,0,0,1,0,2.63Z"/><path class="cls-1" d="M63.68,79.91H55.24a1.32,1.32,0,0,1,0-2.63h8.45a1.32,1.32,0,0,1,0,2.63Z"/><path class="cls-1" d="M77.12,105.81H41.8c-2.27,0-4-1.37-4-3.11V99.77c0-1.57,1.95-2.63,3.58-3.25l3-1.16a2.53,2.53,0,0,0,1.55-1.76l1.73-7.09a1.32,1.32,0,1,1,2.56.63l-1.73,7.09a5.17,5.17,0,0,1-3.16,3.6l-3,1.17a7.17,7.17,0,0,0-1.89,1v2.68a1.77,1.77,0,0,0,1.41.5H77.12a1.76,1.76,0,0,0,1.41-.5V100a7.13,7.13,0,0,0-1.85-1l-3.75-1.22a5.13,5.13,0,0,1-3.42-3.69l-1.7-7a1.32,1.32,0,1,1,2.56-.62l1.7,7a2.52,2.52,0,0,0,1.68,1.81l3.78,1.23.06,0c1.63.61,3.58,1.67,3.58,3.25v2.93C81.16,104.45,79.39,105.81,77.12,105.81Z"/><path class="cls-1" d="M59,53.68H59a1.32,1.32,0,0,1-.62-.18c-.42-.25-10.27-6.16-10.27-12.7a6.49,6.49,0,0,1,6.47-6.48A5.63,5.63,0,0,1,59,36.46a5.63,5.63,0,0,1,4.47-2.15A6.49,6.49,0,0,1,70,40.79c0,6.54-9.84,12.45-10.26,12.7A1.29,1.29,0,0,1,59,53.68ZM54.55,36.94a3.85,3.85,0,0,0-3.84,3.85c0,3.86,5.49,8.2,8.31,10,2.82-1.82,8.31-6.17,8.31-10a3.85,3.85,0,0,0-3.84-3.85c-1.61,0-2.77,1.07-3.18,2.93a1.32,1.32,0,0,1-2.59-.06C57.3,38,56.15,36.94,54.55,36.94Z"/><path class="cls-1" d="M77.38,64.85H40.75a2.48,2.48,0,0,1-2.37-2.58V37H32.85a1.32,1.32,0,0,1-.9-2.28L56.57,11.81a3.51,3.51,0,0,1,4.76,0l24.8,22.95A1.32,1.32,0,0,1,85.25,37h-5.5V62.27A2.48,2.48,0,0,1,77.38,64.85ZM41,62.22H77.12V35.71a1.32,1.32,0,0,1,1.31-1.32h3.46L59.55,13.72a.88.88,0,0,0-1.19,0L36.19,34.4h3.5A1.32,1.32,0,0,1,41,35.71Z"/><path class="cls-1" d="M105.11,55.38H90.87a1.77,1.77,0,0,1-1.73-1.8v-9H87.8a1.31,1.31,0,0,1-.9-2.28l9.57-8.92a2.17,2.17,0,0,1,2.94,0l9.64,8.92a1.31,1.31,0,0,1-.89,2.28h-1.33v9A1.77,1.77,0,0,1,105.11,55.38ZM91.78,52.75H104.2V43.25a1.32,1.32,0,0,1,.75-1.19L98,35.6,91,42.06a1.32,1.32,0,0,1,.76,1.2Z"/><path class="cls-1" d="M100.13,55.38a1.32,1.32,0,0,1-1.32-1.32V48H97.14v6.08a1.32,1.32,0,1,1-2.63,0V47.13a1.78,1.78,0,0,1,1.77-1.77h3.39a1.78,1.78,0,0,1,1.77,1.77v6.94A1.32,1.32,0,0,1,100.13,55.38Z"/><path class="cls-1" d="M26.6,55.38H12.36a1.77,1.77,0,0,1-1.73-1.8v-9H9.29a1.31,1.31,0,0,1-.9-2.28L18,33.38a2.17,2.17,0,0,1,2.94,0l9.64,8.92a1.31,1.31,0,0,1-.89,2.28H28.33v9A1.77,1.77,0,0,1,26.6,55.38ZM13.27,52.75H25.69V43.25a1.32,1.32,0,0,1,.75-1.19l-7-6.47-6.94,6.46a1.32,1.32,0,0,1,.76,1.2Z"/><path class="cls-1" d="M21.63,55.38a1.32,1.32,0,0,1-1.32-1.32V48H18.63v6.08a1.32,1.32,0,1,1-2.63,0V47.13a1.78,1.78,0,0,1,1.77-1.77h3.39a1.78,1.78,0,0,1,1.77,1.77v6.94A1.32,1.32,0,0,1,21.63,55.38Z"/></g></g></svg>