<svg xmlns="http://www.w3.org/2000/svg" viewBox="0 0 117.8 118.06"><defs><style>.cls-1{fill:#e1f5fe;}</style></defs><title>sell_home_1</title><g id="Слой_2" data-name="Слой 2"><g id="Icon_set" data-name="Icon set"><path class="cls-1" d="M102.4,115.5V2.56A2.57,2.57,0,0,1,105,0h4.19a2.57,2.57,0,0,1,2.57,2.56V115.5a2.57,2.57,0,0,1-2.57,2.56H105A2.57,2.57,0,0,1,102.4,115.5ZM109.11,2.63H105V115.43h4.08Z"/><path class="cls-1" d="M110.85,16.29h4.37a2.57,2.57,0,0,0,2.57-2.56V9.57A2.57,2.57,0,0,0,115.23,7h-4.37a1.32,1.32,0,0,0,0,2.63h4.32v4h-4.32a1.32,1.32,0,0,0,0,2.63Z"/><path class="cls-1" d="M2.57,16.29H103.72a1.32,1.32,0,1,0,0-2.63H2.63v-4H103.71a1.32,1.32,0,0,0,0-2.63H2.57A2.57,2.57,0,0,0,0,9.57v4.16A2.57,2.57,0,0,0,2.57,16.29Z"/><path class="cls-1" d="M25.85,32.18a1.32,1.32,0,0,1-1.32-1.32V15a1.32,1.32,0,0,1,2.63,0V30.87A1.32,1.32,0,0,1,25.85,32.18Z"/><path class="cls-1" d="M71.29,32.18A1.32,1.32,0,0,1,70,30.87V15a1.32,1.32,0,0,1,2.63,0V30.87A1.32,1.32,0,0,1,71.29,32.18Z"/><path class="cls-1" d="M90,91.1H7.75A4.94,4.94,0,0,1,2.8,86.19V34.49a4.94,4.94,0,0,1,4.95-4.92H90a4.94,4.94,0,0,1,4.95,4.92V86.19A4.94,4.94,0,0,1,90,91.1ZM7.75,32.21a2.3,2.3,0,0,0-2.31,2.29V86.19a2.3,2.3,0,0,0,2.31,2.29H90a2.3,2.3,0,0,0,2.32-2.29V34.49A2.3,2.3,0,0,0,90,32.21Z"/><path class="cls-1" d="M64.46,81.74H56.67a3.57,3.57,0,0,1-3.57-3.55V64.76a1.32,1.32,0,1,1,2.63,0V78.18a.94.94,0,0,0,.94.92h7.79a1.32,1.32,0,1,1,0,2.63Z"/><path class="cls-1" d="M81.31,81.74H73.52a3.57,3.57,0,0,1-3.57-3.55V67a3.57,3.57,0,0,1,3.57-3.55h7.79a1.32,1.32,0,1,1,0,2.63H73.52a.94.94,0,0,0-.94.92V78.18a.94.94,0,0,0,.94.92h7.79a1.32,1.32,0,1,1,0,2.63Z"/><path class="cls-1" d="M76.28,73.91h-5a1.32,1.32,0,0,1,0-2.63h5a1.32,1.32,0,0,1,0,2.63Z"/><path class="cls-1" d="M25.85,56.69a1.32,1.32,0,0,1-1.32-1.32V42a3.57,3.57,0,0,1,3.57-3.56H35.9a1.32,1.32,0,0,1,0,2.63H28.11a.93.93,0,0,0-.94.92V55.38A1.32,1.32,0,0,1,25.85,56.69Z"/><path class="cls-1" d="M30.87,48.87h-5a1.32,1.32,0,0,1,0-2.63h5a1.32,1.32,0,0,1,0,2.63Z"/><path class="cls-1" d="M63.6,56.69a1.31,1.31,0,0,1-1.32-1.32V42a3.57,3.57,0,0,1,3.57-3.56h3.46a5.51,5.51,0,0,1,5.58,5.42,4.65,4.65,0,0,1-1.62,3.57,7,7,0,0,1-4.66,1.48H64.91v6.51A1.32,1.32,0,0,1,63.6,56.69Zm1.32-10.46h3.71a4.47,4.47,0,0,0,2.93-.83,2,2,0,0,0,.71-1.58A2.87,2.87,0,0,0,69.32,41H65.86a.93.93,0,0,0-.94.92Z"/><path class="cls-1" d="M33.09,81.74a1.34,1.34,0,0,1-.52-.11,1.32,1.32,0,0,1-.68-1.73l6.54-15.12a1.59,1.59,0,0,1,2.88-.06l7.34,15.13A1.32,1.32,0,0,1,46.29,81L39.94,67.92l-5.64,13A1.32,1.32,0,0,1,33.09,81.74Z"/><path class="cls-1" d="M45.13,76.91H35.22a1.32,1.32,0,1,1,0-2.63h9.91a1.32,1.32,0,1,1,0,2.63Z"/><path class="cls-1" d="M22.15,81.53A9.17,9.17,0,0,1,15,78.12a1.32,1.32,0,1,1,2.12-1.55,6.51,6.51,0,0,0,5,2.32c3.3,0,3.74-1.46,3.74-2.89,0-1.18-1.76-2.4-4.48-3.11-1.54-.4-5.65-1.47-5.65-5,0-1.89,1.29-5.46,6.18-5.46,5.12,0,6.06,3.1,6.09,3.23l-2.53.72,0,.05C25.51,66.35,25,65,22,65c-3.37,0-3.54,2.36-3.54,2.83,0,.71.42,1.63,3.68,2.48,4.09,1.07,6.44,3.13,6.44,5.65C28.53,79.51,26.21,81.53,22.15,81.53Z"/><path class="cls-1" d="M48.22,56.58c-4.88,0-8.57-3.92-8.57-9.11s3.68-9.11,8.57-9.11,8.57,4.1,8.57,9.33S53.18,56.58,48.22,56.58Zm0-15.6c-3.44,0-5.94,2.72-5.94,6.48S44.78,54,48.22,54s5.94-2.58,5.94-6.27S51.6,41,48.22,41Z"/><path class="cls-1" d="M74,56.14a1.32,1.32,0,0,1-1.06-.54l-5.34-7.28a1.31,1.31,0,1,1,2.12-1.55L75,54.05A1.32,1.32,0,0,1,74,56.14Z"/></g></g></svg>