<svg xmlns="http://www.w3.org/2000/svg" viewBox="0 0 118.05 118.03"><defs><style>.cls-1{fill:#e1f5fe;}</style></defs><title>sold</title><g id="Слой_2" data-name="Слой 2"><g id="Icon_set" data-name="Icon set"><path class="cls-1" d="M112.41,118H5.63A5.64,5.64,0,0,1,0,112.4V36.52a5.64,5.64,0,0,1,5.63-5.63H112.41A5.64,5.64,0,0,1,118,36.52V112.4A5.64,5.64,0,0,1,112.41,118ZM5.63,33.52a3,3,0,0,0-3,3V112.4a3,3,0,0,0,3,3H112.41a3,3,0,0,0,3-3V36.52a3,3,0,0,0-3-3Z"/><path class="cls-1" d="M105.22,108.23H12.83a3.48,3.48,0,0,1-3.48-3.48V44.17a3.48,3.48,0,0,1,3.48-3.48h92.39a3.48,3.48,0,0,1,3.48,3.48v60.58A3.48,3.48,0,0,1,105.22,108.23ZM12.83,43.32a.85.85,0,0,0-.84.85v60.58a.84.84,0,0,0,.84.84h92.39a.84.84,0,0,0,.84-.84V44.17a.84.84,0,0,0-.84-.85Z"/><path class="cls-1" d="M16.58,33.41A1.32,1.32,0,0,1,15.8,31L56.5,1.13a5.88,5.88,0,0,1,7,.07l39,29.85a1.32,1.32,0,1,1-1.6,2.09l-39-29.85a3.23,3.23,0,0,0-3.86,0l-40.7,29.9A1.31,1.31,0,0,1,16.58,33.41Z"/><circle class="cls-1" cx="60.06" cy="6.69" r="2.15"/><path class="cls-1" d="M27.42,64.88A11.65,11.65,0,0,1,35,67.34L32.48,71a9.28,9.28,0,0,0-5.19-1.83c-1.24,0-1.85.53-1.85,1.19v.05c0,.85.63,1.22,3.2,1.8,4.26.93,6.91,2.3,6.91,5.77V78c0,3.78-3,6-7.49,6A12.94,12.94,0,0,1,19.38,81l2.86-3.41a9.54,9.54,0,0,0,6,2.22c1.38,0,2.12-.48,2.12-1.27v-.05c0-.77-.61-1.19-3.12-1.77-3.94-.9-7-2-7-5.82v-.05C20.25,67.37,23,64.88,27.42,64.88Zm0-2.63c-5.77,0-9.8,3.52-9.8,8.56v.05a7.11,7.11,0,0,0,2.24,5.44l-2.5,3a2.63,2.63,0,0,0,.26,3.65,15.54,15.54,0,0,0,10.43,3.74c6.05,0,10.12-3.48,10.12-8.66V78A7.05,7.05,0,0,0,35.27,72l-.2-.14,2.12-3a2.63,2.63,0,0,0-.5-3.57A14.21,14.21,0,0,0,27.42,62.25Z"/><path class="cls-1" d="M49.14,64.83a9.61,9.61,0,0,1,9.95,9.58v.05a9.7,9.7,0,0,1-10,9.63,9.61,9.61,0,0,1-9.95-9.58v-.05A9.7,9.7,0,0,1,49.14,64.83Zm0,14.63a4.72,4.72,0,0,0,4.71-4.95v-.05a4.81,4.81,0,0,0-4.76-5,4.72,4.72,0,0,0-4.68,4.95v.05A4.81,4.81,0,0,0,49.14,79.46Zm0-17.26A12.32,12.32,0,0,0,36.51,74.46v.05A12.27,12.27,0,0,0,49.09,86.72,12.32,12.32,0,0,0,61.72,74.46v-.05A12.27,12.27,0,0,0,49.14,62.2Zm0,14.63A2.21,2.21,0,0,1,47,74.46v-.05a2.11,2.11,0,0,1,2.05-2.31,2.19,2.19,0,0,1,2.13,2.37v.05A2.12,2.12,0,0,1,49.14,76.83Z"/><path class="cls-1" d="M68.41,65.2v14h9v4.5H63.28V65.2Zm0-2.63H63.28a2.63,2.63,0,0,0-2.63,2.63V83.72a2.63,2.63,0,0,0,2.63,2.63h14.1A2.63,2.63,0,0,0,80,83.72v-4.5a2.63,2.63,0,0,0-2.63-2.63H71V65.2A2.63,2.63,0,0,0,68.41,62.57Z"/><path class="cls-1" d="M88.68,65.2c6.61,0,10.45,3.81,10.45,9.15v.05c0,5.35-3.89,9.31-10.56,9.31h-7V65.2Zm-2,14h2.09c3.07,0,5.11-1.69,5.11-4.68v-.05c0-3-2-4.68-5.11-4.68H86.67Zm2-16.6H81.54a2.63,2.63,0,0,0-2.63,2.63V83.72a2.63,2.63,0,0,0,2.63,2.63h7A13.81,13.81,0,0,0,98.14,83a11.49,11.49,0,0,0,3.63-8.6v-.05a11.32,11.32,0,0,0-3.61-8.53A13.79,13.79,0,0,0,88.68,62.57Zm.62,13.94v-4.1c1.93.2,1.93,1.46,1.93,2v.05C91.24,75.05,91.24,76.31,89.3,76.51Z"/></g></g></svg>