<svg xmlns="http://www.w3.org/2000/svg" viewBox="0 0 118.34 118.01"><defs><style>.cls-1{fill:#e1f5fe;}</style></defs><title>medium_house</title><g id="Слой_2" data-name="Слой 2"><g id="Icon_set" data-name="Icon set"><path class="cls-1" d="M107.95,118H10.39a5.09,5.09,0,0,1-5.09-5.08V48.33a5.09,5.09,0,0,1,5.09-5.09,1.32,1.32,0,0,1,0,2.63,2.46,2.46,0,0,0-2.46,2.45v64.59a2.46,2.46,0,0,0,2.46,2.45h97.56a2.46,2.46,0,0,0,2.46-2.45V48.33a2.46,2.46,0,0,0-2.46-2.45,1.32,1.32,0,0,1,0-2.63A5.09,5.09,0,0,1,113,48.33v64.59A5.09,5.09,0,0,1,107.95,118Z"/><path class="cls-1" d="M115.24,45.88H3.1A3.1,3.1,0,0,1,.25,41.55L10.34,18.14a8.32,8.32,0,0,1,7.64-5h82.37a8.32,8.32,0,0,1,7.64,5l10.09,23.42a3.1,3.1,0,0,1-2.85,4.33ZM18,15.74a5.69,5.69,0,0,0-5.23,3.44L2.67,42.6a.47.47,0,0,0,0,.44.47.47,0,0,0,.39.21H115.24a.47.47,0,0,0,.43-.65L105.58,19.18a5.69,5.69,0,0,0-5.23-3.44Z"/><path class="cls-1" d="M38.94,15.38a1.32,1.32,0,0,1-1.32-1.32V4.43a1.8,1.8,0,0,0-1.79-1.79h-10a1.8,1.8,0,0,0-1.79,1.8v9.64a1.32,1.32,0,1,1-2.63,0V4.43A4.43,4.43,0,0,1,25.88,0h10a4.43,4.43,0,0,1,4.43,4.43v9.64A1.32,1.32,0,0,1,38.94,15.38Z"/><path class="cls-1" d="M68.15,117.74a1.31,1.31,0,0,1-1.31-1.31V86.35a.71.71,0,0,0-.71-.71H52.69a.71.71,0,0,0-.71.71v30.08a1.32,1.32,0,0,1-2.63,0V86.35A3.35,3.35,0,0,1,52.69,83H66.12a3.35,3.35,0,0,1,3.34,3.34v30.08A1.31,1.31,0,0,1,68.15,117.74Z"/><path class="cls-1" d="M32,102.84H20.77a3.35,3.35,0,0,1-3.35-3.35V86.35A3.35,3.35,0,0,1,20.77,83H32a3.35,3.35,0,0,1,3.34,3.34V99.5A3.35,3.35,0,0,1,32,102.84ZM20.77,85.63a.71.71,0,0,0-.71.71V99.5a.71.71,0,0,0,.71.71H32a.71.71,0,0,0,.71-.71V86.35a.71.71,0,0,0-.71-.71Z"/><path class="cls-1" d="M98.46,102.84H87.28a3.35,3.35,0,0,1-3.35-3.35V86.35A3.35,3.35,0,0,1,87.28,83H98.46a3.35,3.35,0,0,1,3.34,3.34V99.5A3.35,3.35,0,0,1,98.46,102.84ZM87.28,85.63a.71.71,0,0,0-.71.71V99.5a.71.71,0,0,0,.71.71H98.46a.71.71,0,0,0,.71-.71V86.35a.71.71,0,0,0-.71-.71Z"/><path class="cls-1" d="M32,74.32H20.77A3.35,3.35,0,0,1,17.43,71V57.83a3.35,3.35,0,0,1,3.35-3.35H32a3.35,3.35,0,0,1,3.34,3.35V71A3.35,3.35,0,0,1,32,74.32ZM20.77,57.11a.71.71,0,0,0-.71.71V71a.71.71,0,0,0,.71.71H32a.71.71,0,0,0,.71-.71V57.83a.71.71,0,0,0-.71-.71Z"/><path class="cls-1" d="M98.46,74.32H87.28A3.35,3.35,0,0,1,83.94,71V57.83a3.35,3.35,0,0,1,3.35-3.35H98.46a3.35,3.35,0,0,1,3.34,3.35V71A3.35,3.35,0,0,1,98.46,74.32ZM87.28,57.11a.71.71,0,0,0-.71.71V71a.71.71,0,0,0,.71.71H98.46a.71.71,0,0,0,.71-.71V57.83a.71.71,0,0,0-.71-.71Z"/><path class="cls-1" d="M66.51,74.32H52.43A1.32,1.32,0,0,1,51.11,73V57.83a3.35,3.35,0,0,1,3.35-3.35h10a3.35,3.35,0,0,1,3.35,3.35V73A1.32,1.32,0,0,1,66.51,74.32ZM53.75,71.69H65.19V57.83a.71.71,0,0,0-.71-.71h-10a.71.71,0,0,0-.71.71Z"/><path class="cls-1" d="M73.46,74.32h-28A3.35,3.35,0,0,1,42.13,71V64.55a1.32,1.32,0,0,1,2.63,0V71a.71.71,0,0,0,.71.71h28a.71.71,0,0,0,.71-.71V64.55a1.32,1.32,0,0,1,2.63,0V71A3.35,3.35,0,0,1,73.46,74.32Z"/></g></g></svg>